<svg id="Capa_1" enable-background="new 0 0 512 512" height="512" viewBox="0 0 512 512" width="512" xmlns="http://www.w3.org/2000/svg"><g><g><g><g><g><path d="m405.644 511.999c-38.091-.172-69.133-31.237-74.607-68.933l-15.74-108.4 8.701-5.112c4.307-2.52 7.002-7.339 7.002-12.554 0-8.276-6.738-15-15-15s-15 6.724-15 15v15h-90v-15c0-8.276-6.738-15-15-15s-15 6.724-15 15c0 5.215 2.695 10.034 7.002 12.554l8.701 5.112-15.74 108.4c-5.474 37.696-36.516 68.761-74.607 68.933-37.806.171-69.216-26.864-74.624-64.144-31.369-220.042-31.723-207.313-31.732-220.776-.02-30.417 14.335-59.262 37.462-79.018 45.233-38.64 104.897-31.778 141.516 3.939h17.022c16.569 0 30 13.431 30 30h60c0-16.569 13.431-30 30-30h17.021c36.647-35.744 96.372-42.589 141.617-3.852 23.073 19.754 37.381 48.554 37.361 78.928-.009 13.534-.381.862-31.732 220.764-5.407 37.295-36.818 64.33-74.623 64.159z" fill="#4d5e80"/></g></g></g></g><path d="m333.021 152h-17.021c-16.569 0-30 13.431-30 30h-30v150h45v-15c0-8.276 6.738-15 15-15s15 6.724 15 15c0 5.215-2.695 10.034-7.002 12.554l-8.701 5.112 15.74 108.4c5.473 37.696 36.517 68.76 74.606 68.932 37.806.172 69.218-26.863 74.625-64.158 31.351-219.902 31.723-207.23 31.732-220.765.02-30.374-14.288-59.174-37.361-78.928-45.245-38.737-104.971-31.891-141.618 3.853z" fill="#3d4566"/><g><path d="m241 0h30v167h-30z" fill="#6cf"/></g><g id="Video_game_2_"><g><g><path d="m391 182h30v30h-30z" fill="#59abff"/></g></g><g><g><path d="m391 242h30v30h-30z" fill="#59abff"/></g></g><g><g><path d="m421 212h30v30h-30z" fill="#59abff"/></g></g><g><g><path d="m361 212h30v30h-30z" fill="#59abff"/></g></g><path d="m151 212h-30v-30h-30v30h-30v30h30v30h30v-30h30z" fill="#6cf"/></g><circle cx="196" cy="317" fill="#cfd7e6" r="45"/><circle cx="316" cy="317" fill="#b8c4d9" r="45"/><path d="m256 0h15v167h-15z" fill="#59abff"/><g><path d="m316 212h-120v-60h120z" fill="#3d4566"/></g><path d="m256 152h60v60h-60z" fill="#2e2e4d"/></g></svg>